<svg xmlns="http://www.w3.org/2000/svg" version="1.1" viewBox="-5.0 -10.0 110.0 135.0">
 <path d="m47.938 47.051c-0.11328-0.11328-0.22656-0.22656-0.37891-0.33984 0.86719 0.039062 1.6602 0.15234 2.3398 0.45312 0.60547 0.22656 1.1328 0.64453 1.5859 1.3281 0.52734 0.79687 1.0195 1.9336 1.4727 3.6758 0.41406 1.4766 0.79297 3.4102 1.1328 5.3828 0.41406 2.4648 0.75391 5.0039 0.98047 6.8984h-0.60547c-2.3008 0-6.4922 0.074219-9.3594 0.11328-2.8672 0.074219-4.4141 0.074219-4.9805 0.19141-0.60547 0.11328-0.26562 0.30469 0.15234 0.60547 0.45312 0.30469 1.0195 0.68359 1.2812 1.25 0.26562 0.57031 0.22656 1.3281 0.22656 1.8945-0.039062 0.60547-0.039062 1.0234 0.074219 1.3633 0.074219 0.37891 0.22656 0.68359 0.41406 0.83203 0.1875 0.15234 0.41406 0.15234 0.60547 0.83203 0.22656 0.64453 0.37891 2.0078 0.71875 4.4336 0.33984 2.4648 0.83203 6.0273 1.2461 8.1484 0.41406 2.1602 0.75391 2.8789 1.0586 3.3359 0.33984 0.49219 0.64062 0.71875 1.8477 1.0977 0.75391 0.22656 1.7734 0.53125 2.8672 0.75781 0.039062 0.19141 0.074218 0.41797 0.11328 0.57031 0.074219 0.30469 0.15234 0.41797 1.0938 0.45312 0.71875 0.039063 1.8867 0.074219 2.832 0.074219 0.1875 0.039062 0.45312 0.039062 0.94531 0 0.52734 0.039062 0.79297 0.039062 0.94531 0 0.98047 0 2.1523-0.039063 2.832-0.074219 0.94531-0.039063 1.0586-0.15234 1.1328-0.45312 0.039062-0.15234 0.074219-0.37891 0.074219-0.57031 1.0938-0.22656 2.1523-0.53125 2.8672-0.75781 1.2461-0.37891 1.5469-0.60547 1.8477-1.0977 0.33984-0.45312 0.67969-1.1758 1.0938-3.3359 0.41406-2.1211 0.90625-5.6836 1.2461-8.1484 0.33984-2.4258 0.49219-3.7891 0.67969-4.4336 0.1875-0.68359 0.41406-0.68359 0.60547-0.83203 0.1875-0.15234 0.37891-0.45312 0.45312-0.83203 0.074219-0.33984 0.074219-0.75781 0.074219-1.3633-0.039063-0.57031-0.039063-1.3281 0.22656-1.8945 0.26562-0.57031 0.79297-0.94922 1.2461-1.25 0.45312-0.30469 0.79297-0.49219 0.1875-0.60547-0.60547-0.11328-2.1133-0.11328-4.9805-0.19141-2.1523-0.039062-4.9805-0.074219-7.2461-0.11328 0.71875-2.6523 1.5078-5.5703 2.6406-7.5781 0.83203-1.5156 1.8477-2.5781 2.9453-3.4492 0.11328 0.074219 0.22656 0.19141 0.33984 0.30469 0.33984 0.45313 0.60547 1.2891 1.0195 2.0078 0.41406 0.71875 1.0195 1.3281 1.4336 1.707 0.45312 0.33984 0.75391 0.45312 0.98047 0.26562 0.1875-0.19141 0.33984-0.71875 0.33984-1.2109 0.039062-0.49219-0.11328-0.98438 0.039062-0.91016 0.11328 0.074218 0.52734 0.71875 0.79297 1.4766 0.26562 0.79688 0.45312 1.7422 0.67969 2.1992 0.22656 0.45312 0.52734 0.41797 1.1328 0.41797 0.60547 0.039062 1.5469 0.074218 2.0742-0.039063 0.56641-0.074219 0.67969-0.33984 0.41406-0.79688-0.22656-0.45312-0.90625-1.1367-1.6602-1.8555-0.79297-0.75781-1.6992-1.5547-1.5859-1.5898 0.11328 0 1.2461 0.79687 2.0742 1.5156 0.83203 0.71875 1.3594 1.4023 1.7344 1.8203 0.33984 0.45312 0.56641 0.68359 0.79297 0.68359 0.26562 0 0.56641-0.19141 0.94531-0.33984 0.33984-0.11328 0.83203-0.19141 1.1328-0.22656 0.33984 0 0.52734 0.039063 0.52734-0.11328 0.039062-0.19141-0.1875-0.60547-0.71875-1.0977-0.52734-0.49219-1.3945-1.0977-2.1133-1.6289-0.71875-0.57031-1.3203-1.0234-1.207-0.98438 0.15234 0 1.0586 0.49219 1.9258 1.1367 0.86719 0.64453 1.7344 1.4023 2.2266 1.7812 0.49219 0.37891 0.60547 0.37891 0.86719 0.26563 0.26562-0.11328 0.64062-0.26563 0.98047-0.37891 0.30078-0.11328 0.56641-0.15234 0.60547-0.30469 0.074218-0.15234-0.039063-0.41797-0.37891-0.75781-0.30078-0.30469-0.83203-0.64453-1.7734-1.2109-0.94531-0.57031-2.3008-1.3281-2.3398-1.4414-0.074218-0.15234 1.168 0.37891 2.2266 0.87109 1.0938 0.53125 1.9609 0.98438 2.4531 1.4414 0.52734 0.41797 0.64062 0.75781 0.90625 0.75781 0.22656 0 0.56641-0.41797 0.67969-0.79688 0.11328-0.41797 0-0.79688-0.67969-1.3281-0.67969-0.49219-1.8867-1.0977-2.6797-1.5547-0.75391-0.45312-1.0586-0.79687-0.79297-0.79687 0.30078 0 1.1328 0.30469 2 0.60547 0.86719 0.30469 1.6992 0.64453 2 0.49219 0.33984-0.15234 0.15234-0.75781-0.039063-1.3633-0.1875-0.60547-0.37891-1.2109-0.56641-1.4414-0.22656-0.22656-0.41406-0.11328-0.83203-0.074218-0.45313 0.039062-1.0938 0-1.207-0.19141-0.11328-0.22656 0.33984-0.57031 0.83203-0.75781 0.49219-0.15234 1.0586-0.15234 1.0938-0.26562 0-0.11328-0.49219-0.37891-0.90625-0.64453-0.41406-0.22656-0.75391-0.49219-1.0195-0.49219-0.30078 0-0.56641 0.26562-1.0586 0.68359-0.45312 0.41797-1.168 1.0234-1.6211 1.3281-0.45312 0.30469-0.67969 0.33984-0.83203 0.26562-0.11328-0.039063-0.11328-0.22656 0.15234-0.53125 0.26562-0.30469 0.79297-0.75781 1.2812-1.2109 0.52734-0.41797 1.0195-0.83203 1.207-1.0625 0.15234-0.22656-0.039062-0.22656-0.49219-0.30469-0.41406-0.074219-1.0938-0.19141-1.5469-0.41797-0.45312-0.26562-0.71875-0.60547-0.86719-0.57031-0.15234 0.074219-0.1875 0.53125-0.52734 1.1367-0.30078 0.60547-0.90625 1.3633-1.3594 1.8555-0.49219 0.49219-0.83203 0.68359-0.94531 0.60547-0.074219-0.074219 0.039063-0.49219 0.41406-0.98438 0.37891-0.53125 0.98047-1.1758 1.3203-1.6289 0.37891-0.49219 0.49219-0.79688 0.30078-0.98438-0.1875-0.22656-0.64063-0.30469-1.0586-0.60547-0.37891-0.30469-0.71875-0.83203-1.0195-0.94922-0.26562-0.074219-0.45312 0.26562-0.64062 1.0625-0.15234 0.75781-0.30078 1.9688-0.45313 2.7305-0.15234 0.79688-0.37891 1.1758-0.56641 1.25-0.22656 0.039062-0.41406-0.22656-0.49219-0.53125-0.074219-0.33984-0.039063-0.71875 0.15234-1.1758 0.1875-0.45312 0.56641-0.94922 0.79297-1.5156 0.26562-0.60547 0.45312-1.2891 0.37891-1.5156-0.039063-0.22656-0.33984 0-0.67969-0.11328-0.30078-0.11328-0.67969-0.60547-1.0195-0.71875-0.30078-0.11328-0.60547 0.15234-0.79297 0.87109-0.22656 0.71875-0.37891 1.8945-0.52734 2.7656-0.1875 0.87109-0.33984 1.4766-0.45312 1.707-0.074219 0.19141-0.039062 0.039063-0.074219-0.49219 0-0.53125-0.074218-1.4414-0.039062-2.1992 0.074219-0.75781 0.26562-1.4023 0.52734-1.9336 0.22656-0.53125 0.52734-1.0234 0.30078-1.0625-0.1875-0.074219-0.86719 0.30469-1.6602 0.57031s-1.6602 0.41797-2.1523 0.68359c-0.49219 0.22656-0.64062 0.49219-0.37891 1.25 0.22656 0.75781 0.83203 2.0078 1.0195 2.4648 0.1875 0.45312-0.074219 0.15234-0.49219-0.49219-0.41406-0.64453-1.0195-1.6289-1.3203-2.2734-0.30078-0.64453-0.30078-0.91016-0.56641-0.98438-0.26562-0.039062-0.79297 0.15234-1.1328 0.49219-0.37891 0.33984-0.52734 0.79688-0.56641 1.3633-0.074219 0.53125 0 1.2109 0.41406 2.0078 0.37891 0.79688 1.168 1.7812 1.4727 2.4258 0.074218 0.22656 0.15234 0.41797 0.15234 0.57031-1.207 0.98438-2.3789 2.1602-3.3203 3.9023-1.2461 2.1992-2.1133 5.3047-2.8672 8.1484h-0.52734c0.11328-1.8945 0.22656-3.7891 0.30078-5.6836 0-0.60547 0-1.2109 0.039063-1.7812 0.11328-1.5547 0.22656-2.8047 0.37891-3.8281 0.15234-1.4414 0.41406-2.5 0.75391-3.4102 0.49219-1.25 1.207-2.3125 1.9258-3.3711 0.37891-0.57031 0.75391-1.0977 1.0938-1.707 0.52734-0.87109 0.98047-1.7812 1.3594-2.7305 0.11328-0.039063 0.22656-0.074219 0.37891-0.039063 0.37891 0.11328 0.94531 0.71875 1.5859 0.75781 0.64062 0.039062 1.3945-0.49219 1.9258-0.79688 0.52734-0.33984 0.86719-0.49219 1.0938-0.68359 0.22656-0.15234 0.33984-0.26562 0.22656-0.33984-0.15234-0.039062-0.52734-0.039062-0.94531-0.11328-0.37891-0.074219-0.79297-0.26562-1.1328-0.60547-0.33984-0.33984-0.60547-0.79688-0.64062-0.98438-0.039063-0.19141 0.15234-0.11328 0.52734 0 0.33984 0.11328 0.79297 0.26562 1.2461 0.49219 0.45312 0.19141 0.90625 0.45312 1.207 0.37891 0.26563-0.074219 0.41406-0.53125 0.56641-0.98438 0.11328-0.41797 0.22656-0.83203 0.26562-0.98438 0-0.19141-0.11328-0.11328-0.56641-0.22656-0.41406-0.11328-1.207-0.41797-1.7734-0.60547-0.56641-0.19141-0.94531-0.30469-1.0195-0.41797-0.074219-0.074219 0.1875-0.15234 0.52734-0.15234 0.37891-0.039062 0.83203 0.039063 1.3203 0.22656 0.49219 0.19141 0.98047 0.53125 1.207 0.41797 0.26562-0.074218 0.1875-0.60547 0.1875-1.2109-0.039062-0.57031-0.074218-1.2109-0.15234-1.5156-0.074218-0.30469-0.22656-0.30469-0.64062-0.22656-0.41406 0.039062-1.0586 0.15234-1.6602 0.19141-0.56641 0.039062-1.0938 0.074218-0.98047 0 0.11328-0.074219 0.86719-0.19141 1.5078-0.33984 0.64062-0.15234 1.168-0.26562 1.3203-0.45312 0.1875-0.15234 0.039062-0.37891-0.074219-0.64453-0.11328-0.30469-0.1875-0.68359-0.26562-0.94922-0.039063-0.26562-0.074219-0.41797-0.37891-0.45312-0.30078-0.074219-0.83203 0-1.3594 0.26562-0.49219 0.22656-0.94531 0.64453-1.168 0.79688-0.22656 0.15234-0.22656 0.074219-0.22656-0.19141 0.039063-0.22656 0.039063-0.64453 0.30078-1.0234 0.30078-0.33984 0.86719-0.68359 0.98047-0.83203 0.11328-0.19141-0.1875-0.19141-0.67969-0.26562-0.49219-0.11328-1.1328-0.26562-1.6602-0.41797-0.52734-0.15234-0.94531-0.26562-1.1328 0.15234-0.1875 0.45312-0.15234 1.4414-0.22656 1.668-0.11328 0.26562-0.37891-0.26562-0.60547-0.75781-0.22656-0.49219-0.41406-0.94922-0.67969-1.0977-0.26562-0.15234-0.56641-0.039063-0.86719 0.22656-0.30078 0.26562-0.60547 0.64453-0.75391 0.87109-0.1875 0.22656-0.22656 0.30469-0.11328 0.53125 0.074219 0.22656 0.30078 0.60547 0.64062 1.0234 0.33984 0.45312 0.79297 0.94922 1.2461 1.4414s0.90625 0.98438 0.98047 1.2109c0.11328 0.26563-0.074219 0.26563-0.45312-0.074218-0.33984-0.33984-0.83203-1.0625-1.3594-1.7422-0.52734-0.68359-1.1328-1.3633-1.4336-1.668-0.33984-0.26563-0.41406-0.22656-0.52734 0.11328-0.11328 0.33984-0.33984 0.91016-0.41406 1.2891-0.11328 0.41797-0.11328 0.57031 0.22656 0.91016 0.37891 0.33984 1.0938 0.83203 1.8477 1.4414 0.79297 0.60547 1.6602 1.3281 2 1.668 0.33984 0.33984 0.1875 0.33984-0.26563 0.074219-0.45312-0.22656-1.2461-0.68359-1.8125-1.0625-0.56641-0.33984-0.98047-0.60547-1.2461-0.87109-0.26562-0.26563-0.41406-0.49219-0.64062-0.57031-0.26562-0.074219-0.60547 0.039063-0.71875 0.45312-0.15234 0.41797-0.074219 1.1367 0.45312 2.0469 0.52734 0.91016 1.5469 1.9336 2.1875 2.5781 0.67969 0.64453 1.0195 0.87109 1.2461 1.2109 0.074219 0.15234 0.15234 0.30469 0.22656 0.49219-0.37891 0.87109-0.79297 1.707-1.2461 2.5-0.33984 0.53125-0.67969 1.0625-1.0586 1.5898-0.75391 1.1367-1.5469 2.2734-2.0742 3.6367-0.11328 0.33984-0.22656 0.71875-0.33984 1.0977-0.56641-3.5234-1.7734-5.457-2.793-7.0508-0.22656-0.33984-0.41406-0.68359-0.60547-0.98437-0.98047-1.707-1.4336-3.3711-2.0391-5.5703l-0.11328-0.30469c-0.49219-1.8945-1.0938-3.9414-1.6992-6.1016 0.22656-0.15234 0.52734-0.37891 0.98047-0.57031 0.98047-0.37891 2.7539-0.60547 4-1.0234 1.2461-0.37891 1.9609-0.98438 2.4922-1.6289 0.52734-0.64453 0.83203-1.2891 0.79297-2.0078-0.039062-0.68359-0.37891-1.4414-0.71875-1.668-0.30078-0.22656-0.60547 0.074218-1.5859 0.45312-0.94531 0.33984-2.5273 0.71875-3.6211 0.98438-1.0938 0.22656-1.6992 0.30469-1.0586 0 0.67969-0.30469 2.5664-0.94922 3.5859-1.4766 1.0195-0.53125 1.168-0.98438 0.90625-1.707-0.26562-0.75781-1.0195-1.8555-1.5469-2.918-0.52734-1.0625-0.86719-2.1602-1.1328-2.3125s-0.45312 0.64453-0.75391 1.4414-0.75391 1.6289-1.4336 2.5c-0.71875 0.87109-1.7344 1.707-2.3008 2.2344-0.56641 0.53125-0.71875 0.71875-0.56641 0.41797 0.15234-0.30469 0.56641-1.0977 1.2812-2.1602 0.71875-1.0977 1.7344-2.4648 2.2656-3.4102 0.49219-0.94922 0.49219-1.5156 0.074219-1.7422-0.45312-0.22656-1.3594-0.11328-1.8125-0.30469-0.45312-0.22656-0.49219-0.75781-0.79297-0.57031-0.30078 0.15234-0.83203 1.0625-1.168 1.9336-0.33984 0.87109-0.49219 1.7422-0.71875 2.3867-0.26562 0.64453-0.60547 1.0977-1.0195 1.3633-0.41406 0.26562-0.90625 0.33984-1.0586 0.074219-0.15234-0.30469 0.039062-0.91016 0.64062-1.8945 0.64062-0.94922 1.6992-2.3125 2.3398-3.2969 0.60547-0.98438 0.79297-1.5547 0.41406-1.7422-0.37891-0.19141-1.2812 0.039062-2.0391-0.074219-0.71875-0.074219-1.2812-0.49219-1.6602-0.45312-0.37891 0.039062-0.60547 0.45312-0.71875 1.3281-0.11328 0.83203-0.15234 2.1211-0.26562 3.0312-0.15234 0.91016-0.41406 1.4766-0.60547 1.4414-0.1875 0-0.33984-0.57031-0.33984-1.5547s0.1875-2.3867 0.49219-3.3359c0.26562-0.94922 0.67969-1.5156 0.60547-1.707-0.11328-0.22656-0.75391-0.11328-1.4727-0.30469-0.71875-0.22656-1.5469-0.79688-2.0391-1.1758-0.52734-0.37891-0.75391-0.57031-0.79297-0.19141-0.074218 0.41797 0.039063 1.3633 0.11328 2.3516 0.074218 0.98438 0.15234 1.9688 0.11328 2.5781-0.039063 0.57031-0.22656 0.71875-0.41406 0.68359-0.1875-0.074219-0.37891-0.33984-0.56641-1.1367-0.15234-0.79687-0.26562-2.1211-0.30078-3.0312-0.074219-0.91016-0.074219-1.4766-0.37891-1.7812-0.30078-0.30469-0.90625-0.33984-1.5859-0.53125-0.71875-0.15234-1.4727-0.41797-1.5469-0.26562-0.11328 0.15234 0.49219 0.71875 0.83203 1.4023 0.30078 0.68359 0.41406 1.5156 0.11328 1.5898-0.33984 0.11328-1.0586-0.53125-1.4727-0.98438-0.37891-0.49219-0.49219-0.83203-0.94531-0.79688-0.41406 0.039063-1.207 0.45312-2.0391 0.87109-0.83203 0.41797-1.6602 0.91016-1.4727 1.4023 0.1875 0.49219 1.3945 0.98438 2.6055 1.5547 1.207 0.53125 2.3789 1.1367 2.6797 1.4414 0.26562 0.26562-0.37891 0.26562-1.6211-0.039062-1.2461-0.30469-3.1328-0.94922-4.3398-1.0977-1.2461-0.19141-1.7734 0.11328-2.0391 0.64453-0.30078 0.53125-0.33984 1.2891-0.11328 1.5547 0.22656 0.22656 0.75391 0 1.6992 0.074219 0.94531 0.11328 2.3398 0.49219 3.9609 1.0625 1.5859 0.57031 3.4336 1.3281 3.2461 1.4023s-2.3789-0.53125-3.9258-0.91016c-1.5469-0.41797-2.4141-0.57031-3.0938-0.57031-0.64062 0-1.0586 0.15234-1.1328 0.37891-0.11328 0.22656 0.11328 0.49219 0.33984 0.94922 0.22656 0.41797 0.41406 1.0234 0.60547 1.3633 0.15234 0.37891 0.26562 0.53125 1.168 0.64453 0.90625 0.11328 2.5664 0.19141 4.1133 0.45312 1.5469 0.22656 2.9805 0.64453 3.1328 0.75781 0.1875 0.15234-0.90625 0-2.2266-0.19141-1.3203-0.22656-2.832-0.45312-3.8867-0.49219-1.0586-0.039062-1.6602 0.19141-1.8477 0.37891-0.15234 0.19141 0.11328 0.33984 0.41406 0.68359 0.33984 0.37891 0.71875 0.91016 0.98047 1.4414 0.22656 0.53125 0.33984 1.0234 0.60547 1.2891 0.26562 0.22656 0.71875 0.22656 1.5469 0.11328 0.83203-0.074219 2.0391-0.22656 3.6211-0.11328 1.5859 0.11328 3.5859 0.45312 3.6992 0.60547 0.074218 0.11328-1.6992 0.039062-3.2461 0-1.5469-0.039063-2.9062-0.039063-3.6602 0.19141-0.71875 0.22656-0.83203 0.60547-0.37891 1.25 0.45312 0.68359 1.4727 1.5898 2.1133 2.1992 0.64063 0.60547 0.90625 0.94922 1.5859 0.71875 0.71875-0.22656 1.8477-1.0234 2.9453-1.5547 1.0938-0.53125 2.1523-0.79688 2.3789-0.71875 0.1875 0.039063-0.45312 0.41797-0.94531 0.94922-0.49219 0.53125-0.86719 1.2109-0.83203 1.6289 0 0.45312 0.41406 0.64453 1.2461 0.68359 0.83203 0.074219 2.0742 0.039063 3.2461-0.26562 1.168-0.33984 2.2656-0.91016 3.0586-1.0234 0.41406-0.039062 0.71875 0.039063 1.0195 0.11328 0.64062 2.3125 1.2461 4.4727 1.6992 6.1758l0.11328 0.26562c0.60547 2.3125 1.0938 4.0547 2.1523 5.875 0.22656 0.37891 0.41406 0.68359 0.64062 1.0234 0.98047 1.5547 2.1523 3.4492 2.6406 6.8984 0.22656 1.707 0.30078 3.75 0.30078 5.9883-0.074218 0.60547-0.11328 1.25-0.15234 1.9336-0.074219 0.71875-0.11328 1.5156-0.1875 2.3516-0.15234-1.2109-0.37891-2.5391-0.60547-3.7891-0.33984-2.0078-0.71875-3.9805-1.1328-5.4961-0.49219-1.8945-1.0195-3.1445-1.6211-4.0547-0.64062-0.94922-1.3594-1.4414-2.1523-1.7812-1.0586-0.45312-2.2266-0.57031-3.4727-0.57031 0.074218-0.19141 0.15234-0.45312 0.22656-0.83203 0.074219-0.79688-0.039062-2.0859-0.86719-3.3359-0.79297-1.25-2.3008-2.4258-3.1328-2.9922-0.83203-0.53125-0.94531-0.45312-0.86719-0.074219 0.039062 0.41797 0.22656 1.0977 0.30078 1.8555 0.11328 0.75781 0.039062 1.5898-0.074219 1.3633-0.11328-0.19141-0.30078-1.4766-0.67969-2.7305-0.41406-1.25-1.0195-2.5391-2.1523-3.4492s-2.7539-1.4766-3.3945-1.4766c-0.60547-0.039062-0.15234 0.45312 0.41406 1.2109 0.56641 0.75781 1.2812 1.8203 1.7344 2.8789 0.49219 1.0977 0.71875 2.1992 0.67969 2.5781 0 0.37891-0.26562 0.074219-0.71875-0.71875-0.49219-0.79688-1.168-2.0859-2.0391-3.0312-0.86719-0.94922-1.8477-1.6289-2.793-1.9688-0.94531-0.33984-1.8477-0.37891-1.9258-0.15234-0.074219 0.22656 0.60547 0.75781 1.4336 1.5156 0.83203 0.75781 1.7734 1.7812 2.4531 2.7656 0.71875 0.94922 1.1328 1.8555 1.168 2.1992 0.039062 0.37891-0.33984 0.26562-0.71875 0.11328-0.41406-0.15234-0.83203-0.26562-1.0938-0.60547-0.22656-0.33984-0.22656-0.83203-0.56641-1.5156-0.33984-0.68359-1.0195-1.4766-1.8125-2.2734-0.83203-0.79688-1.8477-1.5156-2.4531-2.0078-0.60547-0.45312-0.83203-0.64453-1.207-0.68359-0.41406-0.074219-0.98047 0-1.4336 0.039062-0.45312 0.039063-0.79297 0.039063-0.64062 0.30469 0.15234 0.30469 0.79297 0.91016 1.7344 1.4766 0.94531 0.57031 2.1875 1.1758 3.0195 1.7422 0.79297 0.57031 1.168 1.0977 1.4727 1.5898 0.26562 0.49219 0.45312 0.91016 0.33984 1.0977-0.074219 0.19141-0.49219 0.074219-0.90625-0.15234-0.41406-0.22656-0.86719-0.57031-1.2461-1.0234-0.41406-0.45313-0.75391-1.0234-1.4727-1.6289s-1.7734-1.25-2.6797-1.7422c-0.86719-0.49219-1.5859-0.83203-2.1133-0.87109-0.56641-0.074219-0.94531 0.15234-1.3203 0.30469-0.37891 0.15234-0.71875 0.22656-0.45312 0.49219 0.26562 0.22656 1.1328 0.64453 2.2266 1.1758s2.3789 1.1758 3.0938 1.7812c0.75391 0.60547 0.94531 1.1758 0.83203 1.4023-0.074219 0.22656-0.45312 0.15234-0.94531-0.15234-0.49219-0.30469-1.0938-0.83203-1.5859-1.2891-0.49219-0.41797-0.86719-0.79688-1.6211-1.2109-0.79297-0.45312-1.9609-0.91016-2.6406-1.0625-0.71875-0.19141-0.98047-0.039062-1.3594 0.19141-0.33984 0.22656-0.83203 0.53125-0.67969 0.75781 0.11328 0.22656 0.79297 0.41797 1.5469 0.71875 0.75391 0.30469 1.5859 0.79688 2.0742 1.0977 0.45312 0.30469 0.60547 0.41797 0.33984 0.45312-0.30078 0.039063-0.98047-0.039062-1.7734-0.33984-0.79297-0.30469-1.6602-0.83203-2.1875-1.0234-0.56641-0.19141-0.79297-0.074219-1.0938 0.30469-0.30078 0.33984-0.67969 0.94922-0.98047 1.5547-0.30078 0.57031-0.56641 1.1758-0.30078 1.6289 0.22656 0.45312 1.0195 0.79688 1.7344 0.87109 0.71875 0.074219 1.3945-0.074219 2.5664-0.22656 1.168-0.11328 2.832-0.26563 3.2461-0.15234 0.45312 0.11328-0.30078 0.45312-1.3945 0.87109-1.0938 0.45312-2.4922 0.94922-3.0586 1.2891-0.60547 0.33984-0.37891 0.45312 0.49219 0.75781 0.83203 0.26563 2.2656 0.68359 3.207 0.94922 0.90625 0.26562 1.2812 0.37891 2.4531 0 1.168-0.41797 3.0586-1.3281 4.0742-1.668 1.0586-0.37891 1.168-0.22656 0.56641 0.30469-0.60547 0.53125-1.9609 1.4023-3.0938 1.9336-1.1328 0.57031-2.0391 0.75781-1.9609 0.98438 0.074219 0.22656 1.1328 0.49219 2.1133 0.75781 0.98047 0.22656 1.9258 0.45312 2.7539 0.41797 0.79297-0.074219 1.5078-0.37891 2.2266-0.98438 0.75391-0.64453 1.5078-1.5898 2.1133-2.0469 0.60547-0.45312 1.0586-0.37891 1.2812-0.19141 0.22656 0.19141 0.22656 0.49219-0.37891 0.98438-0.56641 0.45312-1.7344 1.1367-2.4141 1.5898-0.67969 0.45313-0.86719 0.68359-0.45312 1.0625 0.41406 0.37891 1.4727 0.83203 2.3789 1.1758 0.90625 0.33984 1.6992 0.60547 2.2266 0.41797 0.52734-0.19141 0.83203-0.75781 0.98047-1.4766 0.1875-0.71875 0.26562-1.5898 0.41406-1.707 0.1875-0.11328 0.45312 0.57031 0.49219 1.2109 0.039063 0.64453-0.22656 1.25-0.67969 1.9688s-1.1328 1.5547-0.98047 2.0078c0.15234 0.41797 1.1328 0.45312 2.5273 0.53125 1.3945 0.074219 3.1719 0.15234 3.7734-0.15234 0.56641-0.30469-0.11328-0.98438-0.75391-2.0078-0.64062-1.0234-1.2461-2.3516-1.2461-2.918 0-0.57031 0.67969-0.37891 1.0195 0.074218 0.33984 0.45313 0.33984 1.1758 0.52734 1.7422 0.15234 0.57031 0.49219 0.98438 1.3594 1.25 0.86719 0.22656 2.2656 0.30469 2.793-0.19141 0.52734-0.49219 0.15234-1.5547-0.11328-2.3516s-0.49219-1.3281-0.90625-1.7422z" fill-rule="evenodd"/>
<text x="0.0" y="117.5" font-size="5.0" font-weight="bold" font-family="Arbeit Regular, Helvetica, Arial-Unicode, Arial, Sans-serif" fill="#000000">Created by zoo</text><text x="0.0" y="122.5" font-size="5.0" font-weight="bold" font-family="Arbeit Regular, Helvetica, Arial-Unicode, Arial, Sans-serif" fill="#000000">from Noun Project</text></svg>