<svg xmlns:inkscape="http://www.inkscape.org/namespaces/inkscape" xmlns:sodipodi="http://sodipodi.sourceforge.net/DTD/sodipodi-0.dtd" xmlns="http://www.w3.org/2000/svg" xmlns:svg="http://www.w3.org/2000/svg" viewBox="0 0 26.458333 33.07291625" version="1.1" x="0px" y="0px"><g transform="translate(-141.25739,-75.917427)"><path style="" d="m 151.96643,80.801402 c 0.12981,-0.13035 0.38941,-0.320862 0.46929,-0.631696 0.0699,-0.300808 -0.03,-0.731966 -0.23964,-1.022746 -0.21966,-0.290781 -0.53918,-0.451212 -0.76884,-0.521401 -0.22965,-0.07019 -0.36944,-0.06016 -0.46929,-0.120323 -0.0899,-0.06016 -0.13978,-0.200538 -0.24962,-0.180484 -0.11982,0.01003 -0.27958,0.170458 -0.44932,0.210565 -0.15976,0.04011 -0.30953,-0.04011 -0.44932,0.09024 -0.14977,0.13035 -0.27958,0.471266 -0.31952,0.701885 -0.0399,0.230619 0.02,0.350942 -0.0299,0.431158 -0.0499,0.09024 -0.20969,0.140377 -0.36945,0.340915 -0.15976,0.200539 -0.31951,0.531427 -0.27957,0.792127 0.0499,0.2607 0.29954,0.451212 0.41936,0.671804 0.11982,0.220592 0.10984,0.471266 0.17973,0.762046 0.0599,0.280754 0.1997,0.601616 0.40938,0.741993 0.20969,0.140377 0.47928,0.100269 0.7289,0.05013 0.23964,-0.05013 0.43934,-0.120323 0.64902,0 0.20969,0.110296 0.41937,0.39105 0.64902,0.511373 0.22965,0.120323 0.46929,0.08021 0.64902,-0.110296 0.17973,-0.200539 0.30954,-0.541454 0.46929,-0.611643 0.15976,-0.06016 0.33949,0.150404 0.49925,0.190512 0.14977,0.03008 0.27958,-0.110296 0.36944,-0.461239 0.0899,-0.350942 0.12981,-0.91245 0.0599,-1.313527 -0.0799,-0.39105 -0.25961,-0.611642 -0.48926,-0.691857 -0.22965,-0.08022 -0.49925,0 -0.76884,0.09024 -0.27958,0.09024 -0.55916,0.200538 -0.68896,0.220592 -0.1298,0.03008 -0.11982,-0.02005 0.02,-0.140377 z m -1.987,11.611178 c 0.12981,0.13035 0.2696,0.310834 0.36944,0.661777 0.10984,0.350942 0.17973,0.882369 0.31952,1.814873 0.12981,0.922477 0.3295,2.256058 0.56914,3.118374 0.23964,0.862315 0.51922,1.253365 0.76884,1.504038 0.25961,0.2607 0.47928,0.370997 0.83873,0.421131 0.28957,0.05014 3.05539,0.05014 3.34496,0 0.34947,-0.05013 0.57912,-0.160431 0.82874,-0.421131 0.25961,-0.250673 0.53919,-0.641723 0.77883,-1.504038 0.23964,-0.862316 0.42935,-2.195897 0.56914,-3.118374 0.13979,-0.932504 0.20968,-1.463931 0.30953,-1.814873 0.10984,-0.350943 0.23964,-0.531427 0.37943,-0.661777 0.1298,-0.13035 0.26959,-0.220593 0.16974,-0.2607 -0.0899,-0.04011 -0.41936,-0.04011 -1.27807,-0.05014 -2.33647,-0.02005 -4.53315,-0.02005 -6.85964,0 -0.86869,0.01003 -1.18821,0.01003 -1.28806,0.05014 -0.0899,0.04011 0.0399,0.13035 0.17973,0.2607 z m 6.15072,-8.081701 c -0.02,0.08022 -0.0499,0.170458 -0.0799,0.2607 -0.01,-0.02005 -0.02,-0.05013 -0.0399,-0.07019 -0.0399,-0.05013 -0.0799,-0.110296 -0.15976,-0.170457 0.02,-0.07019 0.0499,-0.150404 0.0699,-0.230619 0.02,-0.06016 0.03,-0.120324 0.0499,-0.180485 0.01,0.02005 0.02,0.04011 0.0399,0.07019 0.0399,0.09024 0.0899,0.220592 0.11982,0.320861 z m -2.27657,4.53217 c 0.01,0.06016 0.02,0.120323 0.03,0.170458 0.0399,0.210565 0.0999,0.381023 0.14977,0.55148 0.0799,0.240647 0.15976,0.481293 0.1997,0.812181 0.0599,0.39105 0.0699,0.902423 0.0599,1.443877 h -0.25961 c 0,-0.531427 -0.01,-1.032773 -0.0599,-1.403769 -0.0399,-0.310835 -0.10983,-0.541454 -0.18971,-0.772073 -0.0599,-0.180485 -0.10984,-0.36097 -0.14978,-0.581562 -0.01,-0.02005 -0.01,-0.05013 -0.02,-0.07019 0.0899,-0.03008 0.16975,-0.07019 0.23964,-0.150404 z m 2.11681,-1.40377 c -0.03,0.381023 -0.0599,0.772074 -0.11982,1.163124 -0.0899,0.591588 -0.23964,1.163123 -0.37943,1.704577 -0.02,0.110296 -0.0499,0.220592 -0.0899,0.370996 -0.0799,0.320861 -0.14978,0.621669 -0.20969,0.882369 -0.02,0.09024 -0.0399,0.180485 -0.0599,0.2607 h -0.25961 c 0.02,-0.100269 0.04,-0.200538 0.0699,-0.320861 0.0599,-0.270727 0.1298,-0.571535 0.1997,-0.88237 0.0299,-0.09024 0.0599,-0.230619 0.0999,-0.381023 0.13979,-0.5214 0.27957,-1.092935 0.36944,-1.674496 0.0499,-0.330889 0.0799,-0.661777 0.0999,-0.992666 0.10983,-0.03008 0.1997,-0.07019 0.27958,-0.13035 z m -1.58761,0.701885 0.01,0.04011 c 0.0799,0.330888 0.14977,0.661777 0.1997,0.992665 0.0599,0.330889 0.0899,0.65175 0.10983,0.972612 0.01,0.310835 0.02,0.611642 0.01,0.892396 0,0.280754 -0.01,0.541454 -0.02,0.7821 h -0.25961 c 0.01,-0.250673 0.02,-0.511373 0.02,-0.7821 0,-0.280754 0,-0.571535 -0.02,-0.882369 -0.01,-0.300808 -0.0499,-0.621669 -0.0999,-0.942531 -0.0499,-0.300808 -0.10983,-0.611642 -0.18972,-0.932504 0.03,-0.03008 0.0799,-0.06016 0.11982,-0.08021 0.04,-0.02005 0.0799,-0.04011 0.11982,-0.06016 z m -0.88866,-3.308885 c 0.0899,-0.250673 0.21967,-0.611642 0.48927,-0.81218 0.27957,-0.200539 0.69894,-0.23062 1.14826,0 0.45931,0.220592 0.94857,0.711911 1.17822,1.062854 0.23964,0.360969 0.21967,0.581561 0.0599,0.651749 -0.15976,0.06016 -0.44932,-0.03008 -0.54917,0.04011 -0.10983,0.07019 -0.02,0.310835 0.0399,0.561508 0.0599,0.250673 0.0899,0.5214 0.0699,0.701884 -0.03,0.180485 -0.10984,0.270727 -0.33949,0.320862 -0.23964,0.05013 -0.60908,0.07019 -0.82875,0.150404 -0.21967,0.09024 -0.28956,0.2607 -0.39939,0.360969 -0.11982,0.110296 -0.28957,0.150404 -0.3994,0.270727 -0.0999,0.13035 -0.13979,0.340916 -0.22966,0.481292 -0.0899,0.140377 -0.21966,0.220593 -0.54917,0.09024 -0.33949,-0.13035 -0.86869,-0.461239 -1.26808,-0.601616 -0.3994,-0.13035 -0.66899,-0.08021 -0.93859,-0.140377 -0.26959,-0.06016 -0.54917,-0.240646 -0.61906,-0.541454 -0.0699,-0.310834 0.0799,-0.752019 0.02,-0.982638 -0.0499,-0.240646 -0.28956,-0.2607 -0.47928,-0.411104 -0.18971,-0.160431 -0.31952,-0.441185 -0.26959,-0.691858 0.0499,-0.240646 0.28956,-0.451211 0.35946,-0.641722 0.0699,-0.190512 -0.01,-0.370997 0.0699,-0.511374 0.0899,-0.140377 0.34947,-0.240646 0.5292,-0.300807 0.17973,-0.06016 0.28957,-0.07019 0.49925,-0.09024 0.20968,-0.02005 0.50923,-0.05013 0.69894,-0.02005 0.1997,0.03008 0.28956,0.110296 0.50924,0.120323 0.21966,0.02005 0.56914,-0.05014 0.75885,0.07019 0.17973,0.13035 0.1997,0.441185 0.20968,0.701885 0.01,0.2607 0.02,0.471265 0.0599,0.511373 0.03,0.04011 0.0799,-0.10027 0.16974,-0.350943 z m -0.71891,0.892396 c -0.23964,-0.220592 -0.69895,-0.631696 -1.00848,-0.922476 -0.30953,-0.290781 -0.48926,-0.461239 -0.48926,-0.431158 0,0.02005 0.17973,0.240646 0.44932,0.511373 0.2696,0.280754 0.62905,0.631696 0.75886,0.7821 0.13979,0.160431 0.0599,0.13035 -0.15976,0.110296 -0.21967,-0.03008 -0.57913,-0.05014 -0.91861,-0.06016 -0.33949,-0.01003 -0.65901,-0.01003 -0.5991,0.02005 0.0499,0.02005 0.47928,0.07019 0.8587,0.120323 0.37943,0.05014 0.71892,0.120324 0.90863,0.170458 0.1997,0.05014 0.25961,0.08022 0.16975,0.13035 -0.0799,0.04011 -0.29955,0.09024 -0.54918,0.190512 -0.23963,0.110296 -0.50923,0.270727 -0.67897,0.39105 -0.16974,0.120323 -0.23964,0.200538 -0.14977,0.170457 0.0899,-0.04011 0.34947,-0.190511 0.61906,-0.310834 0.26959,-0.13035 0.55916,-0.210566 0.7289,-0.290781 0.16975,-0.07019 0.22966,-0.13035 0.25961,-0.05013 0.0299,0.08022 0.0299,0.310835 0.02,0.62167 -0.01,0.310834 -0.03,0.711911 -0.02,0.872342 0.02,0.160431 0.0699,0.08021 0.0999,-0.170458 0.0299,-0.240646 0.0399,-0.65175 0.0599,-0.902423 0.02,-0.250673 0.0399,-0.330888 0.0799,-0.350942 0.0299,-0.02005 0.0799,0.02005 0.21966,0.100269 0.14978,0.08021 0.37943,0.190512 0.63904,0.270727 0.25961,0.09024 0.54917,0.150404 0.7988,0.180485 0.2596,0.03008 0.49924,0.04011 0.47927,0.01003 -0.02,-0.02005 -0.28956,-0.09024 -0.63903,-0.190512 -0.34947,-0.09024 -0.77883,-0.220592 -1.03844,-0.320862 -0.26959,-0.100269 -0.36944,-0.180484 -0.38941,-0.240646 -0.03,-0.06016 0.02,-0.09024 0.27958,-0.230619 0.25961,-0.140377 0.73889,-0.381023 1.08836,-0.531427 0.34947,-0.16043 0.57912,-0.220592 0.76884,-0.240646 0.19969,-0.02005 0.35945,-0.01003 0.33948,-0.02005 -0.0299,-0.01003 -0.24962,-0.05013 -0.62905,0.01003 -0.37942,0.07019 -0.9286,0.230619 -1.27807,0.381023 -0.35946,0.150404 -0.5292,0.300808 -0.61906,0.39105 -0.0999,0.08022 -0.12981,0.110296 -0.15976,0.110296 -0.03,-0.01003 -0.0599,-0.05013 -0.29955,-0.280754 z m 3.28504,-3.449261 c -0.24962,0.08022 -0.61906,0.190511 -0.93858,0.100269 -0.31952,-0.100269 -0.60908,-0.421131 -0.69895,-0.91245 -0.0999,-0.501346 -0.01,-1.193204 0.11982,-1.594281 0.13979,-0.401077 0.32951,-0.5214 0.47928,-0.441185 0.14977,0.09024 0.24962,0.381024 0.36944,0.411104 0.11982,0.04011 0.25961,-0.170458 0.41937,-0.370996 0.15976,-0.200538 0.35946,-0.39105 0.50923,-0.481292 0.15976,-0.09024 0.28956,-0.08022 0.46929,0.08022 0.17973,0.150404 0.41937,0.441185 0.61907,0.561507 0.20968,0.120324 0.37942,0.07019 0.5292,0.10027 0.14977,0.03008 0.28956,0.150404 0.44932,0.150404 0.16974,0.01003 0.35946,-0.09024 0.5292,-0.110296 0.15976,-0.01003 0.29955,0.04011 0.3994,0.391049 0.0999,0.340916 0.16974,0.972612 0.29954,1.373689 0.13979,0.401077 0.33949,0.581562 0.45931,0.832235 0.11982,0.250673 0.14978,0.581561 -0.0599,0.822208 -0.1997,0.250673 -0.63903,0.401077 -0.78881,0.581561 -0.14977,0.180485 -0.02,0.39105 -0.03,0.641723 -0.01,0.240647 -0.14978,0.521401 -0.37943,0.631697 -0.22965,0.110296 -0.5292,0.04011 -0.7289,0.100269 -0.1997,0.06016 -0.27958,0.240646 -0.44932,0.250673 -0.15976,0.02005 -0.3994,-0.120323 -0.54917,-0.230619 -0.15976,-0.110297 -0.23964,-0.190512 -0.37943,-0.340916 -0.13979,-0.150404 -0.34947,-0.381023 -0.44932,-0.551481 -0.0899,-0.180484 -0.0799,-0.300807 -0.20968,-0.481292 -0.11982,-0.180485 -0.38941,-0.421131 -0.3994,-0.641723 -0.01,-0.220592 0.21967,-0.421131 0.41937,-0.591589 0.19969,-0.170457 0.35945,-0.310834 0.36944,-0.360969 0.01,-0.05013 -0.12981,0 -0.37943,0.08021 z m 1.14827,0.02005 c -0.03,0.330888 -0.0799,0.942531 -0.11982,1.373688 -0.0399,0.421131 -0.0599,0.661777 -0.0499,0.65175 0.02,-0.02005 0.0799,-0.29078 0.13979,-0.671803 0.0599,-0.391051 0.10984,-0.88237 0.15976,-1.082908 0.0399,-0.210566 0.0599,-0.120323 0.17973,0.06016 0.10983,0.190511 0.30953,0.491319 0.50923,0.772073 0.1997,0.270727 0.3994,0.5214 0.37943,0.471266 -0.01,-0.06016 -0.23964,-0.431158 -0.42935,-0.762047 -0.18972,-0.340915 -0.33949,-0.641723 -0.41937,-0.832234 -0.0799,-0.190512 -0.0799,-0.250674 0,-0.210566 0.0799,0.04011 0.25961,0.180485 0.48926,0.310835 0.22965,0.13035 0.51922,0.250673 0.71892,0.310834 0.19969,0.06016 0.30953,0.07019 0.22965,0.02005 -0.0899,-0.06016 -0.36944,-0.170457 -0.62905,-0.310834 -0.25961,-0.140377 -0.49925,-0.310835 -0.65901,-0.401077 -0.16974,-0.09024 -0.24962,-0.10027 -0.20968,-0.180485 0.0499,-0.07019 0.22965,-0.210565 0.48926,-0.39105 0.24963,-0.180485 0.57913,-0.401077 0.68896,-0.511373 0.11982,-0.110296 0.03,-0.100269 -0.18971,0.02005 -0.20969,0.120323 -0.53919,0.360969 -0.74887,0.501346 -0.1997,0.140377 -0.28956,0.170458 -0.31952,0.160431 -0.0399,-0.02005 -0.0399,-0.09024 -0.0599,-0.250673 -0.0299,-0.160431 -0.0799,-0.411104 -0.17973,-0.671804 -0.0899,-0.2607 -0.20968,-0.5214 -0.33949,-0.752019 -0.1298,-0.220593 -0.26959,-0.411104 -0.27957,-0.381023 -0.01,0.03008 0.0999,0.29078 0.23964,0.621669 0.13979,0.340915 0.29954,0.762046 0.37942,1.032773 0.0799,0.270727 0.0699,0.401077 0.0399,0.451212 -0.0299,0.06016 -0.0799,0.04011 -0.34947,-0.08022 -0.26959,-0.120323 -0.74887,-0.350942 -1.08836,-0.541454 -0.3295,-0.190511 -0.51921,-0.330889 -0.659,-0.471266 -0.12981,-0.150403 -0.21967,-0.280753 -0.20969,-0.250672 0,0.02005 0.10984,0.220592 0.38942,0.481292 0.27958,0.270727 0.73888,0.611642 1.07837,0.802154 0.3295,0.180484 0.54917,0.230619 0.67897,0.250673 0.12981,0.03008 0.16975,0.03008 0.17973,0.06016 0.01,0.03008 0,0.08022 -0.0299,0.401077 z m -5.92106,-1.323554 c 0.01,-0.220593 0.02,-0.641723 -0.03,-1.01272 -0.0399,-0.381023 -0.14977,-0.711911 -0.1997,-0.792127 -0.0499,-0.09024 -0.0299,0.08022 -0.01,0.290781 0.02,0.200539 0.0599,0.451212 0.0699,0.681831 0.01,0.230619 0,0.451212 0,0.631696 0,0.170458 0,0.300808 -0.02,0.240647 -0.0299,-0.06016 -0.0799,-0.310835 -0.16974,-0.501347 -0.0799,-0.180484 -0.18971,-0.300807 -0.36944,-0.431157 -0.17973,-0.140377 -0.41937,-0.280754 -0.44932,-0.290781 -0.0399,0 0.13979,0.140377 0.27957,0.280754 0.13979,0.140377 0.25961,0.280754 0.34948,0.481292 0.0999,0.190512 0.17972,0.431158 0.19969,0.531427 0.02,0.09024 -0.0299,0.03008 -0.16974,-0.02005 -0.13979,-0.06016 -0.36944,-0.13035 -0.61907,-0.140377 -0.2596,-0.01003 -0.53918,0.03008 -0.66898,0.06016 -0.12981,0.04011 -0.0999,0.07019 0.0299,0.07019 0.1298,0 0.36944,-0.03008 0.62905,0 0.25961,0.04011 0.53919,0.140377 0.68896,0.200539 0.13979,0.05013 0.15976,0.06016 0.0299,0.150404 -0.1298,0.09024 -0.40938,0.270727 -0.55915,0.451211 -0.14978,0.180485 -0.16974,0.370996 -0.18971,0.601616 -0.02,0.230619 -0.03,0.511373 0,0.491319 0.02,-0.01003 0.0998,-0.330889 0.17972,-0.561508 0.0699,-0.230619 0.13979,-0.381023 0.2696,-0.531427 0.1298,-0.150404 0.3295,-0.310835 0.43933,-0.39105 0.0999,-0.08022 0.12981,-0.100269 0.15976,-0.03008 0.02,0.08022 0.0499,0.240646 0.11982,0.441185 0.0699,0.210565 0.17973,0.461238 0.29955,0.631696 0.11982,0.180485 0.24962,0.280754 0.23964,0.200538 -0.01,-0.07019 -0.15976,-0.330888 -0.2696,-0.561507 -0.11982,-0.230619 -0.18971,-0.421131 -0.21966,-0.551481 -0.0399,-0.140377 -0.0399,-0.210565 0.0499,-0.220592 0.0799,-0.02005 0.25961,0.02005 0.48926,0.100269 0.22966,0.08022 0.50923,0.200538 0.76884,0.360969 0.25961,0.150404 0.48926,0.340915 0.60908,0.381023 0.11982,0.03008 0.11982,-0.08022 -0.0999,-0.250673 -0.22965,-0.160431 -0.66899,-0.39105 -0.9885,-0.5214 -0.32951,-0.120323 -0.53919,-0.160431 -0.67898,-0.170458 -0.1298,-0.01003 -0.17973,0 -0.1997,-0.02005 -0.02,-0.01003 -0.01,-0.05013 0.01,-0.280754 z" fill="#000000" fill-opacity="1" fill-rule="evenodd" stroke="none"/></g><text x="0" y="41.458332999999996" fill="#000000" font-size="5px" font-weight="bold" font-family="'Helvetica Neue', Helvetica, Arial-Unicode, Arial, Sans-serif">Created by zoo</text><text x="0" y="46.458332999999996" fill="#000000" font-size="5px" font-weight="bold" font-family="'Helvetica Neue', Helvetica, Arial-Unicode, Arial, Sans-serif">from the Noun Project</text></svg>