<svg xmlns:inkscape="http://www.inkscape.org/namespaces/inkscape" xmlns:sodipodi="http://sodipodi.sourceforge.net/DTD/sodipodi-0.dtd" xmlns="http://www.w3.org/2000/svg" xmlns:svg="http://www.w3.org/2000/svg" viewBox="0 0 26.458333 33.07291625" version="1.1" x="0px" y="0px"><g transform="translate(-36.645739,-77.9804)"><path style="" d="m 44.218149,89.75853 c 0.11982,0.04011 0.24962,0.09024 0.38941,0.140377 0.0999,0.04011 0.18972,0.08021 0.28956,0.120323 -0.11981,-0.13035 -0.2596,-0.280754 -0.33948,-0.451212 -0.20969,-0.411104 -0.12981,-0.892396 -0.12981,-0.892396 0,0 0.47928,0.06016 0.7289,0.641723 0.15976,0.39105 0.14978,0.691858 0.11982,0.852289 0.0699,0.04011 0.13979,0.07019 0.21967,0.100269 0.1298,0.06016 0.26959,0.13035 0.41937,0.200538 -0.0999,-0.110296 -0.18972,-0.250673 -0.24963,-0.411103 -0.14977,-0.431158 0.03,-1.102962 0.03,-1.102962 0,0 0.49925,0.230619 0.69894,0.792127 0.12981,0.39105 0.01,0.752019 -0.0699,0.932504 0.1298,0.06016 0.25961,0.130349 0.3994,0.210565 0.10983,0.06016 0.21966,0.120323 0.3295,0.180484 -0.0799,-0.09024 -0.13979,-0.200538 -0.16975,-0.310834 -0.1298,-0.411103 0.11982,-0.932504 0.11982,-0.932504 0,0 0.47928,0.300808 0.62905,0.752019 0.0999,0.310835 0.03,0.65175 -0.02,0.832235 0.0599,0.04011 0.11982,0.08021 0.17973,0.120323 0.0799,0.05014 0.14978,0.100269 0.22966,0.160431 -0.02,-0.180485 -0.02,-0.471266 0.0799,-0.741993 0.17973,-0.431157 0.5991,-0.822207 0.5991,-0.822207 0,0 0.13979,0.561507 0.01,0.982638 -0.0899,0.300808 -0.37943,0.561508 -0.54918,0.681831 0.0999,0.07019 0.18972,0.140377 0.27958,0.210566 0.0999,-0.10027 0.2696,-0.250674 0.49925,-0.36097 0.37943,-0.170457 0.57912,0.01003 0.57912,0.01003 0,0 -0.21966,0.481292 -0.50923,0.561508 -0.0899,0.03008 -0.1997,0.03008 -0.29954,0.01003 0.0399,0.04011 0.0799,0.07019 0.11982,0.110296 0.30953,0.270727 0.56914,0.551481 0.78881,0.822208 0.37942,0.491319 0.57912,0.972612 0.76883,1.443877 0.16975,0 0.32951,0 0.48926,0 -0.20968,-0.621669 -0.39939,-1.273419 -0.42935,-2.095627 -0.0299,-0.511373 0.01,-1.082908 0.0999,-1.704578 0.01,-0.110296 0.03,-0.230619 0.0499,-0.350941 -0.10984,0.170457 -0.25961,0.360968 -0.43934,0.461238 -0.41937,0.230619 -1.13828,0 -1.13828,0 0,0 0.0499,-0.411104 0.659,-0.65175 0.41937,-0.170458 0.7988,-0.200538 0.98851,-0.210565 0.0399,-0.170458 0.0799,-0.350943 0.11982,-0.541454 -0.27958,0.07019 -0.93858,0.170457 -1.36793,-0.05013 -0.55922,-0.290787 -0.94863,-1.002698 -0.94863,-1.002698 0,0 0.86869,-0.09024 1.49774,0.16043 0.42935,0.170458 0.7289,0.511374 0.86869,0.711912 0.0399,-0.160431 0.0799,-0.320861 0.11981,-0.481292 0.03,-0.100269 0.0599,-0.190512 0.0899,-0.290781 -0.22966,-0.100269 -0.68896,-0.381023 -0.89864,-0.842262 -0.2696,-0.631696 -0.01,-1.483984 -0.01,-1.483984 0,0 0.79879,0.2607 1.0584,0.822207 0.0899,0.190512 0.11982,0.441185 0.10984,0.681831 0.0799,-0.250673 0.16974,-0.491319 0.2596,-0.741992 0.0799,-0.210565 0.15976,-0.431158 0.24963,-0.631696 -0.24963,-0.08022 -0.7988,-0.290781 -1.03843,-0.892397 -0.32951,-0.7821 0.02,-1.5642 0.02,-1.5642 0,0 0.86869,0.461239 1.11832,1.072881 0.10983,0.270727 0.11981,0.591589 0.10983,0.852289 0.11982,-0.290781 0.23964,-0.571535 0.35946,-0.832235 0.0499,-0.110296 0.0999,-0.220592 0.14977,-0.320862 -0.17973,-0.110296 -0.53918,-0.401077 -0.74887,-1.022746 -0.28956,-0.872342 0.20969,-1.463931 0.20969,-1.463931 0,0 0.55915,0.39105 0.7289,1.032773 0.0799,0.330889 0.0599,0.711912 0.02,1.01272 0.0999,-0.210566 0.1997,-0.411104 0.29955,-0.601616 0.0999,-0.190511 0.1997,-0.370996 0.29955,-0.551481 -0.17973,-0.200538 -0.55915,-0.691857 -0.7289,-1.3035 -0.23964,-0.812181 0.21967,-1.393742 0.21967,-1.393742 0,0 0.89864,0.320861 1.00848,1.143069 0.0499,0.381023 -0.03,0.762046 -0.12981,1.062854 l 0.03,0.03008 c 0.1298,-0.200538 0.42935,-0.601615 0.94857,-0.822208 0.71891,-0.300807 1.32799,-0.04011 1.32799,-0.04011 0,0 -0.1997,0.401077 -0.94857,0.721939 -0.5292,0.230619 -1.00847,0.270727 -1.23813,0.2607 -0.10983,0.190511 -0.20968,0.370996 -0.30953,0.561508 0.1298,-0.09024 0.29955,-0.170458 0.49925,-0.200539 0.50923,-0.07019 1.13828,-0.04011 1.13828,-0.04011 0,0 -0.30953,0.541454 -0.94857,0.711912 -0.43934,0.120323 -0.73888,0 -0.88866,-0.09024 l -0.0399,0.07019 c -0.11982,0.220592 -0.23964,0.461238 -0.35946,0.711911 0.20969,-0.120323 0.53919,-0.280753 0.90863,-0.300807 0.5991,-0.02005 1.04842,0.170458 1.04842,0.170458 0,0 -0.33949,0.350942 -1.18821,0.491319 -0.51921,0.09024 -0.76884,-0.01003 -0.88866,-0.10027 -0.0599,0.120323 -0.11981,0.250674 -0.17972,0.381023 -0.14978,0.330889 -0.29955,0.691858 -0.45931,1.082908 0.20968,-0.240646 0.51922,-0.531427 0.84872,-0.65175 0.60908,-0.230619 1.33798,-0.150404 1.33798,-0.150404 0,0 -0.45931,0.812181 -1.18821,1.112989 -0.51921,0.210565 -0.95855,0.150404 -1.15825,0.09024 -0.0699,0.160431 -0.1298,0.330889 -0.18971,0.49132 -0.0899,0.230619 -0.16975,0.461238 -0.24963,0.691857 0.23964,-0.2607 0.5991,-0.631696 0.86869,-0.691857 0.42935,-0.110297 1.24812,-0.130351 1.24812,-0.130351 0,0 -0.46929,0.802154 -1.04842,0.992666 -0.41937,0.150404 -0.9286,0.13035 -1.15825,0.120323 -0.0998,0.280754 -0.17973,0.571535 -0.25961,0.852288 -0.02,0.05014 -0.03,0.110297 -0.0499,0.160431 0.13979,-0.190511 0.3295,-0.42113 0.54917,-0.55148 0.44932,-0.260701 1.19819,-0.160431 1.19819,-0.160431 0,0 -0.14977,0.561508 -0.61907,0.812181 -0.35945,0.190511 -0.95855,0.240646 -1.21816,0.2607 -0.0799,0.330888 -0.14977,0.65175 -0.1997,0.972611 0.18972,-0.06016 0.55916,-0.160431 0.9286,-0.170458 0.54917,0 0.95856,0.270727 0.95856,0.270727 0,0 -0.40939,0.330888 -1.00848,0.320861 -0.40938,0 -0.73889,-0.180484 -0.90863,-0.290781 -0.01,0.10027 -0.03,0.200539 -0.0399,0.300808 -0.03,0.180485 -0.0499,0.36097 -0.0699,0.531427 0.17972,-0.02005 0.50923,-0.02005 0.9885,0.10027 0.7289,0.170457 0.9286,0.691857 0.9286,0.691857 0,0 -0.43934,0.170458 -1.08836,-0.09024 -0.41936,-0.160431 -0.68896,-0.401077 -0.83873,-0.551481 -0.03,0.340915 -0.03,0.671804 -0.02,0.972612 0.0399,0.822208 0.22965,1.473958 0.44932,2.105654 0.31952,0 0.63904,0 0.95856,0.01003 0.0998,-0.310835 0.21966,-0.611643 0.41936,-0.932504 0.12981,-0.220593 0.29955,-0.431158 0.49925,-0.65175 0.01,-0.02005 0.0299,-0.03008 0.0399,-0.05013 -0.0499,0.01003 -0.0899,0.01003 -0.13979,0 -0.18972,-0.05014 -0.35946,-0.39105 -0.35946,-0.39105 0,0 0.11982,-0.140377 0.37943,-0.04011 0.14977,0.06016 0.25961,0.150404 0.3295,0.220593 0.0599,-0.06016 0.11982,-0.110296 0.17973,-0.170458 -0.11982,-0.09024 -0.29955,-0.250673 -0.36944,-0.451212 -0.0998,-0.300807 -0.03,-0.721938 -0.03,-0.721938 0,0 0.29955,0.270727 0.42936,0.581562 0.0799,0.170457 0.0899,0.350942 0.0899,0.481292 0.0399,-0.03008 0.0799,-0.07019 0.11982,-0.100269 0.0399,-0.03008 0.0899,-0.07019 0.1298,-0.110297 -0.0399,-0.13035 -0.0899,-0.350942 -0.0399,-0.571534 0.0899,-0.340916 0.3994,-0.581562 0.3994,-0.581562 0,0 0.18971,0.370996 0.11982,0.681831 -0.01,0.05013 -0.03,0.110296 -0.0599,0.160431 0.0499,-0.04011 0.0999,-0.07019 0.14977,-0.10027 0.0899,-0.07019 0.17973,-0.130349 0.2696,-0.180484 -0.0599,-0.140377 -0.13979,-0.381023 -0.0699,-0.65175 0.10984,-0.421131 0.42936,-0.611642 0.42936,-0.611642 0,0 0.14977,0.481292 0.0699,0.802153 -0.02,0.09024 -0.0599,0.170458 -0.0999,0.250674 0.0699,-0.05014 0.13979,-0.09024 0.1997,-0.130351 0.0599,-0.03008 0.10983,-0.06016 0.16974,-0.09024 -0.03,-0.120323 -0.0399,-0.330888 0.0499,-0.591588 0.13979,-0.441184 0.4593,-0.511373 0.4593,-0.511373 0,0 0.0699,0.350942 -0.0499,0.661776 -0.0399,0.10027 -0.0899,0.190512 -0.15976,0.280755 0.14977,-0.08022 0.27958,-0.140378 0.3994,-0.190512 0,-0.170458 0.0299,-0.441185 0.11982,-0.701884 0.13978,-0.401077 0.43933,-0.471266 0.43933,-0.471266 0,0 0.20969,0.431158 0.02,0.802154 -0.0899,0.170457 -0.21967,0.290781 -0.3295,0.370996 l 0.01,0.02005 c 0.0899,-0.04011 0.29955,-0.09024 0.51922,0 0.30953,0.120323 0.43934,0.441184 0.43934,0.441184 0,0 -0.16975,0.09024 -0.49925,-0.04011 -0.18971,-0.07019 -0.33949,-0.190512 -0.41937,-0.270727 -0.0699,0.03008 -0.1298,0.06016 -0.1997,0.09024 0.0399,0.01003 0.0799,0.04011 0.11982,0.07019 0.17973,0.140376 0.36945,0.370996 0.36945,0.370996 0,0 -0.24963,0.110296 -0.49925,-0.04011 -0.1298,-0.08022 -0.1997,-0.200539 -0.23964,-0.280754 -0.0799,0.04011 -0.16974,0.08021 -0.26959,0.140377 0.0899,0.03008 0.1997,0.08022 0.28956,0.160431 0.1997,0.200538 0.28956,0.431158 0.28956,0.431158 0,0 -0.20968,0.02005 -0.51921,-0.210566 -0.13979,-0.110296 -0.20968,-0.210565 -0.23964,-0.290781 -0.0399,0.03008 -0.0899,0.05014 -0.1298,0.08022 -0.10984,0.06016 -0.21967,0.13035 -0.33949,0.200538 0.0999,0 0.20968,0.01003 0.29955,0.05014 0.25961,0.120323 0.46929,0.401077 0.46929,0.401077 0,0 -0.35946,0.160431 -0.67898,0.03008 -0.17972,-0.07019 -0.29954,-0.200539 -0.35945,-0.300808 -0.0599,0.04011 -0.11982,0.08021 -0.17973,0.120323 -0.0599,0.04011 -0.11982,0.08022 -0.17973,0.120323 0.11982,-0.01003 0.25961,0 0.3295,0.04011 0.16974,0.110296 0.43934,0.381023 0.43934,0.381023 0,0 -0.36944,0.150404 -0.60908,0.03008 -0.13979,-0.07019 -0.27958,-0.200539 -0.35946,-0.300808 -0.0899,0.07019 -0.17973,0.140377 -0.26959,0.220592 0.0599,-0.01003 0.11982,-0.01003 0.17973,0 0.20968,0.05013 0.42935,0.340916 0.42935,0.340916 0,0 -0.1997,0.170457 -0.41937,0.110296 -0.13979,-0.04011 -0.30953,-0.170458 -0.40938,-0.2607 -0.10984,0.09024 -0.21967,0.200538 -0.31952,0.300808 0.0799,0.05013 0.18972,0.120323 0.27958,0.220592 0.17973,0.180484 0.23964,0.431158 0.23964,0.431158 0,0 -0.21967,-0.01003 -0.40938,-0.220593 -0.0999,-0.110296 -0.15976,-0.240646 -0.18972,-0.340915 -0.02,0.02005 -0.0399,0.04011 -0.0599,0.06016 -0.0599,0.06016 -0.11982,0.13035 -0.16974,0.200539 0.0599,0.06016 0.13979,0.160431 0.23964,0.320861 0.17973,0.320862 0.10983,0.591589 0.10983,0.591589 0,0 -0.18971,-0.08022 -0.3295,-0.401077 -0.0599,-0.160431 -0.0899,-0.300808 -0.10983,-0.411104 -0.0799,0.110296 -0.14978,0.210566 -0.20969,0.310835 -0.16974,0.270727 -0.26959,0.531427 -0.35946,0.792127 0.54917,0.01003 1.13829,0.03008 1.79729,0.06016 0.80878,0.03008 1.22815,0.09024 1.44781,0.180485 0.45931,0.190512 -0.0699,0.461238 -0.15975,0.611642 -0.0999,0.170458 -0.0399,0.782101 -0.18972,1.243339 -0.14977,0.461239 -0.24962,-0.140377 -0.48926,0.772073 -0.13979,0.551481 -0.3295,1.644416 -0.49925,2.366354 -0.15975,0.711907 -0.27957,1.062857 -0.40938,1.253367 -0.13979,0.20054 -0.27957,0.24064 -0.31952,0.29078 -0.0499,0.0602 0,0.12032 0.03,0.21057 0.13979,0.40107 -0.38941,0.4111 -0.83873,0.43116 -1.50773,0.0401 -0.94857,-0.21057 -1.24812,-0.39105 -0.12981,-0.0802 -0.81876,-0.0802 -0.94857,0 -0.18971,0.12032 -0.02,0.3008 -0.37942,0.36096 -0.29955,0.0501 -1.35795,0.0602 -1.62755,-0.0902 -0.25961,-0.1504 0.0399,-0.42113 -0.0499,-0.5214 -0.0499,-0.0501 -0.18972,-0.0902 -0.31952,-0.29078 -0.1298,-0.19051 -0.25961,-0.54145 -0.41937,-1.253365 -0.15976,-0.721938 -0.35945,-1.814873 -0.49924,-2.366354 -0.12981,-0.541454 -0.20969,-0.541454 -0.28957,-0.551481 -0.37942,-0.07019 -0.24962,-1.243338 -0.37942,-1.463931 -0.0699,-0.120323 -0.21967,-0.200538 -0.29955,-0.300807 -0.30953,-0.421131 0.90863,-0.461239 1.5876,-0.49132 0.82875,-0.03008 1.53768,-0.06016 2.21665,-0.07019 -0.16974,-0.421131 -0.36944,-0.852289 -0.69894,-1.283446 -0.11982,-0.150404 -0.24962,-0.290781 -0.38941,-0.441185 -0.01,0.150404 -0.03,0.381023 -0.12981,0.631696 -0.17972,0.461239 -0.44932,0.581562 -0.44932,0.581562 0,0 -0.1298,-0.36097 0.11982,-0.812181 0.13979,-0.2607 0.2696,-0.421131 0.35946,-0.501346 -0.0799,-0.08022 -0.16975,-0.170458 -0.25961,-0.250673 -0.0399,-0.03008 -0.0799,-0.07019 -0.1298,-0.10027 -0.03,0.140377 -0.0999,0.36097 -0.25961,0.541454 -0.25961,0.300808 -0.58911,0.340916 -0.58911,0.340916 0,0 0.0599,-0.340916 0.30953,-0.611643 0.14978,-0.16043 0.3295,-0.290781 0.44932,-0.360969 -0.15976,-0.13035 -0.3295,-0.2607 -0.50923,-0.381023 -0.1298,0.13035 -0.3994,0.360969 -0.61906,0.441184 -0.30954,0.10027 -0.62906,-0.110296 -0.62906,-0.110296 0,0 0.28957,-0.421131 0.60909,-0.511373 0.11982,-0.03008 0.24962,-0.03008 0.37942,-0.01003 l -0.0299,-0.01003 c -0.14977,-0.100269 -0.30953,-0.210565 -0.46929,-0.300807 -0.10984,0.13035 -0.30954,0.350942 -0.53919,0.481292 -0.33949,0.190512 -0.89864,0.01003 -0.89864,0.01003 0,0 0.37942,-0.39105 0.60908,-0.551481 0.1298,-0.09024 0.38941,-0.09024 0.58911,-0.08022 -0.10984,-0.07019 -0.21967,-0.13035 -0.33949,-0.190512 -0.0899,-0.06016 -0.18971,-0.110296 -0.28956,-0.160431 -0.0699,0.140377 -0.23964,0.36097 -0.53919,0.49132 -0.44932,0.210565 -0.99849,0.02005 -0.99849,0.02005 0,0 0.27958,-0.401078 0.64902,-0.581562 0.16974,-0.09024 0.37943,-0.100269 0.55915,-0.100269 -0.20968,-0.10027 -0.40938,-0.190512 -0.5891,-0.280754 -0.0799,-0.03008 -0.14978,-0.07019 -0.22966,-0.100269 -0.02,0.110296 -0.0999,0.270727 -0.33949,0.461238 -0.43933,0.340916 -0.73888,0.330889 -0.73888,0.330889 0,0 0.10983,-0.320862 0.38941,-0.601616 0.14978,-0.150403 0.32951,-0.240645 0.47928,-0.280753 -0.15976,-0.06016 -0.29955,-0.120323 -0.42935,-0.170458 l -0.0399,-0.02005 c -0.0399,0.13035 -0.12981,0.310835 -0.34947,0.451211 -0.34948,0.230619 -0.72891,0.110296 -0.72891,0.110296 0,0 0.2696,-0.330887 0.52921,-0.541453 0.0699,-0.07019 0.15976,-0.110296 0.23963,-0.13035 -0.11982,-0.04011 -0.22965,-0.08022 -0.33948,-0.120323 -0.11982,0.120323 -0.3295,0.320861 -0.63904,0.451212 -0.46929,0.210565 -0.7289,0.100269 -0.7289,0.100269 0,0 0.14978,-0.441185 0.5991,-0.641723 0.3295,-0.140377 0.63903,-0.09024 0.77882,-0.04011 l 0.01,-0.03008 c -0.17973,-0.110297 -0.37943,-0.2607 -0.5292,-0.481293 -0.29955,-0.471265 -0.0399,-1.082908 -0.0399,-1.082908 0,0 0.44932,0.07019 0.69894,0.601616 0.17973,0.370996 0.22966,0.772073 0.23964,0.982639 z" fill="#000000" fill-opacity="1" fill-rule="evenodd" stroke="none"/></g><text x="0" y="41.458332999999996" fill="#000000" font-size="5px" font-weight="bold" font-family="'Helvetica Neue', Helvetica, Arial-Unicode, Arial, Sans-serif">Created by zoo</text><text x="0" y="46.458332999999996" fill="#000000" font-size="5px" font-weight="bold" font-family="'Helvetica Neue', Helvetica, Arial-Unicode, Arial, Sans-serif">from the Noun Project</text></svg>