<svg xmlns="http://www.w3.org/2000/svg" xmlns:xlink="http://www.w3.org/1999/xlink" xml:space="preserve" version="1.0" style="shape-rendering:geometricPrecision;text-rendering:geometricPrecision;image-rendering:optimizeQuality;" viewBox="0 0 1000 1250" x="0px" y="0px" fill-rule="evenodd" clip-rule="evenodd"><defs><style type="text/css">
   
    .fil0 {fill:black}
   
  </style></defs><g><path class="fil0" d="M524 131c6,-3 13,-13 21,-5 3,4 6,10 17,20 11,11 30,26 50,48 21,22 44,51 58,73 24,39 23,58 36,35 4,-7 9,-18 15,-29 6,-11 13,-22 15,-30 2,-9 0,-14 4,-21 4,-6 15,-14 15,-24 0,-9 -10,-21 -16,-31 -7,-11 -11,-21 -18,-28 -6,-6 -17,-9 -25,-13 -17,-8 -29,-25 -40,-28 -5,-1 -10,1 -16,-2 -6,-4 -13,-14 -23,-18 -11,-5 -25,-5 -36,-1 -10,5 -17,13 -24,17 -6,4 -12,3 -17,0 -4,-3 -7,-8 -10,-10 -3,-2 -8,-1 -13,-2 -4,-2 -9,-8 -12,-7 -4,1 -6,8 -5,16 0,9 7,33 14,38 3,3 7,3 10,2zm-234 463c-1,6 0,7 8,10 7,3 21,6 28,9 8,2 8,4 8,11 0,7 1,20 3,27 2,7 5,8 7,13 2,4 2,11 6,39 3,29 10,78 17,106 6,28 12,35 15,40 3,4 3,7 3,13 0,7 0,17 3,24 3,8 9,11 17,16 7,5 16,12 21,14 5,2 6,0 9,-2 8,-8 11,-5 14,4 2,3 3,6 6,7 6,1 84,1 90,0 3,-1 4,-4 6,-7 3,-9 6,-12 14,-4 3,2 4,4 9,2 5,-2 14,-9 21,-14 8,-5 14,-8 17,-16 3,-7 3,-17 3,-24 0,-6 0,-9 3,-13 3,-5 9,-12 15,-40 7,-28 13,-77 17,-106 4,-28 4,-35 6,-39 2,-5 5,-6 7,-13 2,-7 3,-20 3,-27 0,-7 0,-9 8,-11 7,-3 21,-6 28,-9 8,-3 9,-4 8,-10 -8,-39 -47,-45 -81,-48 -39,-3 -78,-5 -117,-6 0,-6 0,-13 1,-19 1,-45 5,-94 5,-131 -1,-3 -6,-9 -8,-12 -1,38 -4,88 -6,136 0,-35 0,-68 -1,-98 0,-14 1,-33 1,-45l-9 -11c0,15 -1,39 -1,56l2 124 -1 0c-4,-70 -6,-140 -9,-192 -3,-4 -6,-8 -9,-13 3,55 6,127 10,205 -38,1 -76,3 -114,6 -34,3 -75,8 -83,48zm380 -29c-4,1 -9,2 -15,3 -8,0 -17,1 -27,2 -37,4 -77,6 -118,6 1,-7 1,-14 1,-21 40,0 80,2 117,5 20,2 35,4 42,5zm-181 11c-39,0 -79,-2 -115,-6 -10,-1 -19,-2 -27,-2 -6,-1 -11,-2 -15,-3 7,-1 22,-3 42,-5 36,-3 75,-5 114,-5l1 21zm24 -440c-1,2 -4,9 -4,12 0,6 0,20 0,29 -2,0 -5,0 -9,1 0,-10 0,-24 1,-31 0,-5 3,-14 4,-18 2,3 4,5 8,7zm-53 -2c3,4 11,9 13,15 2,7 3,15 4,24 0,6 -2,16 -2,27l1 3c-3,-4 -6,-6 -9,-8 0,-7 2,-16 1,-21 -1,-8 -2,-16 -4,-22 -1,-3 -7,-7 -8,-9 2,-3 3,-6 4,-9zm-27 -3c-1,-4 -1,-10 -5,-16 -4,-7 -12,-14 -17,-17 -5,-2 -7,-1 -14,-1 -6,0 -17,-2 -27,-1 -10,2 -18,7 -28,11 -10,5 -22,9 -30,14 -14,8 -16,21 -31,36 -7,7 -15,13 -22,28 -6,16 -12,41 -13,58 -3,30 8,41 4,58 -2,8 -6,15 -5,16 1,1 8,-4 17,-9 9,-5 20,-10 33,-18 12,-9 26,-20 43,-33 18,-13 38,-27 53,-38 30,-24 36,-36 53,-66 5,-11 10,-19 11,-23 2,-10 -15,2 -17,3 -3,1 -5,1 -5,-2zm-56 12c-11,0 -8,3 -12,3 -2,0 -5,0 -5,1 -1,1 5,8 9,5 1,-1 2,-2 4,-4 3,-1 14,-4 10,-5 -1,-1 -4,-1 -6,0zm8 -19c-24,0 -12,7 -31,9 -9,1 -9,0 -14,3 -5,3 -10,1 -11,3 -2,2 6,7 15,3 6,-2 7,-8 25,-7 6,1 12,2 19,2 8,1 16,0 19,-1 5,-3 1,-10 -8,-11 -4,-1 -9,-1 -14,-1zm-32 24c-11,-1 -11,0 -18,8 -3,4 -7,8 -13,11 -6,3 -14,5 -19,5 -11,1 -15,-3 -18,-2 -1,0 -2,2 0,3 5,4 21,6 28,6 6,-1 12,-2 18,-4 5,-3 10,-7 14,-9 4,-2 7,-2 10,-3 6,-3 9,-9 4,-13 -1,-1 -3,-1 -6,-2zm-52 51c-4,2 -9,4 -14,6 -5,2 -9,3 -12,5 -7,4 -9,13 2,16 5,2 14,3 21,0 6,-2 9,-7 10,-11 2,-3 2,-5 3,-9 1,-4 7,-14 -1,-12 -2,1 -5,2 -9,5zm-7 35c-9,4 -13,9 -16,10 -4,2 -8,0 -12,7 -2,3 -3,5 -4,6 -1,2 -3,3 -3,4 -2,8 13,16 25,0 3,-4 4,-8 7,-12 2,-4 11,-13 9,-16 0,-1 -3,0 -6,1zm5 10c-2,8 -2,12 -6,19 -2,2 -3,4 -4,7 -2,3 -2,6 -3,7 -2,2 -4,3 -5,4 -2,3 4,5 9,1 3,-2 4,-6 8,-8 3,-3 8,-5 10,-7 3,-3 3,-6 3,-8 -1,-2 -3,-3 -4,-5 -1,-4 0,-13 -5,-13 -2,0 -2,0 -3,3zm48 -49c-4,4 -5,9 -8,13 -3,5 -10,5 -9,18 2,24 24,3 29,-10 2,-5 0,-8 0,-10 1,-3 3,-6 3,-9 1,-9 -8,-11 -15,-2zm53 -15c-2,1 -5,1 -6,-1 -2,-2 -3,-5 -4,-7 -1,-6 -4,-11 -1,-18 2,-4 6,-8 9,-10 4,-2 6,-2 9,-1 2,0 4,-1 5,0 4,3 2,10 -1,14 -2,2 -4,4 -5,6 -1,3 0,12 -6,17zm84 33c-3,-1 -7,-1 -11,-4 -3,-3 -6,-8 -12,-10 -11,-4 -35,3 -35,23 -1,10 4,21 13,40 20,37 43,74 69,105 8,11 15,18 18,24 3,6 2,11 2,17 -1,6 -1,15 1,14 2,-2 7,-13 11,-23 3,-10 5,-20 10,-30 9,-19 26,-39 30,-62 2,-8 1,-16 1,-24 0,-8 1,-17 2,-25 1,-7 1,-13 2,-24 1,-10 2,-25 -1,-34 -4,-9 -11,-13 -17,-21 -6,-9 -10,-21 -16,-21 -6,-1 -14,11 -21,17 -15,14 -25,2 -32,12 -3,5 -6,17 -8,22 -2,5 -3,4 -6,4zm37 59c2,5 7,15 9,21 4,11 1,26 10,32 5,4 13,4 17,2 4,-3 3,-8 5,-12 3,-5 8,-9 8,-16 1,-6 -3,-15 -7,-21 -5,-6 -10,-9 -17,-11 -7,-2 -17,-4 -22,-3 -5,0 -5,2 -3,8zm-21 -58c2,-2 9,-4 16,-5 12,-2 25,4 36,8 4,2 6,2 5,5 -1,3 -10,11 -17,11 -3,0 -5,-1 -9,-2 -5,0 -11,0 -16,-2 -5,-2 -10,-6 -13,-9 -3,-3 -5,-4 -2,-6zm15 -17c1,-2 16,-12 20,-7 1,1 1,4 -1,5 -3,2 -8,2 -12,3 -5,0 -9,1 -7,-1zm-34 47c-12,9 -7,15 -7,23 1,4 -1,8 -1,13 0,6 2,13 5,14 4,0 10,-6 13,-11 8,-12 3,-21 2,-32 -1,-5 -1,-9 -3,-11 -1,-1 -5,1 -9,4zm-9 -27c-4,-1 -21,1 -23,11 -1,4 0,10 1,14 0,4 -1,8 1,9 2,1 6,0 8,-3 3,-5 -3,-15 2,-20 3,-3 8,-5 10,-6 3,-2 4,-4 1,-5zm168 -99c1,-1 4,-1 6,0 3,1 4,2 6,3 2,0 14,2 10,4 -3,2 -15,1 -20,-3 -2,-2 -3,-3 -2,-4zm36 34c6,-5 21,-9 29,-4 6,5 8,16 12,26 3,5 7,10 7,13 1,3 -2,3 -5,1 -4,-4 -11,-19 -22,-25 -3,-2 -5,-2 -7,-3 -2,0 -4,-2 -7,-3 -2,0 -15,0 -7,-5zm10 26c2,-2 6,-4 9,-3 10,1 21,18 8,18 -8,-1 -10,-6 -11,-7 -1,-1 -4,-1 -5,-2 -2,-1 -2,-4 -1,-6zm5 32c1,3 3,8 5,11 2,3 3,4 5,8 2,4 4,10 7,14 8,9 18,0 19,-12 1,-5 -1,-10 -4,-12 -2,-3 -5,-2 -7,-4 -4,-5 -4,-14 -13,-14 -4,0 -10,2 -12,3 -2,2 -2,3 0,6zm-24 -27c-1,3 -3,8 -6,10 -6,7 -8,2 -4,20 1,5 5,33 15,25 6,-5 3,-16 4,-21 2,-7 9,-8 1,-30 -3,-7 -6,-10 -10,-4zm-66 -61c-2,2 -1,5 -2,9 0,3 -2,6 -2,11 0,5 2,12 5,18 4,7 9,11 12,12 6,2 2,-5 14,0 2,1 4,2 6,0 2,-2 4,-6 6,-10 2,-3 3,-6 3,-10 1,-4 0,-9 -2,-11 -4,-6 -9,-1 -12,-6 -2,-2 -4,-6 -8,-9 -3,-2 -8,-2 -12,-3 -4,-1 -7,-2 -8,-1zm-38 -21c1,-2 7,-4 13,-7 6,-2 11,-5 15,-5 5,-1 9,0 12,0 3,0 6,-1 7,0 2,2 2,8 -1,12 -2,4 -7,8 -12,8 -5,1 -10,-2 -14,-3 -4,-1 -8,-1 -13,-1 -4,-1 -8,-3 -7,-4z"/></g><text x="0" y="1015" fill="#000000" font-size="5px" font-weight="bold" font-family="'Helvetica Neue', Helvetica, Arial-Unicode, Arial, Sans-serif">Created by zoo</text><text x="0" y="1020" fill="#000000" font-size="5px" font-weight="bold" font-family="'Helvetica Neue', Helvetica, Arial-Unicode, Arial, Sans-serif">from the Noun Project</text></svg>